<?xml version="1.0" encoding="UTF-8"?>
<svg xmlns="http://www.w3.org/2000/svg" 
  xmlns:xlink="http://www.w3.org/1999/xlink" width="48pt" height="48pt" viewBox="0 0 48 48" version="1.1">
  <defs>
    <filter id="alpha" filterUnits="objectBoundingBox" x="0%" y="0%" width="100%" height="100%">
      <feColorMatrix type="matrix" in="SourceGraphic" values="0 0 0 0 1 0 0 0 0 1 0 0 0 0 1 0 0 0 1 0"/>
    </filter>
    <mask id="mask0">
      <g filter="url(#alpha)">
        <rect x="0" y="0" width="48" height="48" style="fill:rgb(0%,0%,0%);fill-opacity:0.2;stroke:none;"/>
      </g>
    </mask>
    <clipPath id="clip1">
      <rect x="0" y="0" width="48" height="48"/>
    </clipPath>
    <g id="surface5" clip-path="url(#clip1)">
      <path style=" stroke:none;fill-rule:nonzero;fill:rgb(0%,0%,0%);fill-opacity:1;" d="M 35.757812 5.96875 C 35.898438 6.492188 35.441406 7.070312 34.734375 7.257812 L 6.425781 14.835938 C 5.722656 15.023438 5.039062 14.75 4.898438 14.230469 C 4.757812 13.707031 5.214844 13.128906 5.917969 12.941406 L 34.230469 5.363281 C 34.933594 5.175781 35.617188 5.445312 35.757812 5.96875 Z M 35.757812 5.96875 "/>
    </g>
    <clipPath id="clip2">
      <path d="M 4 4 L 36 4 L 36 15 L 4 15 Z M 4 4 "/>
    </clipPath>
    <clipPath id="clip3">
      <path d="M 35.804688 5.132812 C 35.945312 5.65625 35.488281 6.230469 34.785156 6.417969 L 6.472656 13.996094 C 5.769531 14.183594 5.085938 13.914062 4.945312 13.390625 C 4.808594 12.867188 5.265625 12.292969 5.96875 12.101562 L 34.277344 4.527344 C 34.984375 4.335938 35.667969 4.609375 35.804688 5.132812 Z M 35.804688 5.132812 "/>
    </clipPath>
    <mask id="mask1">
      <g filter="url(#alpha)">
        <rect x="0" y="0" width="48" height="48" style="fill:rgb(0%,0%,0%);fill-opacity:0.2;stroke:none;"/>
      </g>
    </mask>
    <clipPath id="clip4">
      <rect x="0" y="0" width="48" height="48"/>
    </clipPath>
    <g id="surface8" clip-path="url(#clip4)">
      <path style=" stroke:none;fill-rule:nonzero;fill:rgb(100%,100%,100%);fill-opacity:1;" d="M 35.296875 4.25 C 35.433594 4.773438 34.980469 5.347656 34.273438 5.539062 L 5.964844 13.113281 C 5.261719 13.300781 4.578125 13.03125 4.4375 12.507812 C 4.296875 11.984375 4.753906 11.410156 5.457031 11.21875 L 33.769531 3.644531 C 34.472656 3.457031 35.15625 3.726562 35.296875 4.25 Z M 35.296875 4.25 "/>
    </g>
    <mask id="mask2">
      <g filter="url(#alpha)">
        <rect x="0" y="0" width="48" height="48" style="fill:rgb(0%,0%,0%);fill-opacity:0.2;stroke:none;"/>
      </g>
    </mask>
    <clipPath id="clip5">
      <rect x="0" y="0" width="48" height="48"/>
    </clipPath>
    <g id="surface11" clip-path="url(#clip5)">
      <path style=" stroke:none;fill-rule:nonzero;fill:rgb(0%,0%,0%);fill-opacity:1;" d="M 6.972656 14.964844 L 41.019531 14.964844 C 42.660156 14.964844 43.992188 16.296875 43.992188 17.9375 L 43.992188 42.007812 C 43.992188 43.648438 42.660156 44.980469 41.019531 44.980469 L 6.972656 44.980469 C 5.332031 44.980469 4 43.648438 4 42.007812 L 4 17.9375 C 4 16.296875 5.332031 14.964844 6.972656 14.964844 Z M 6.972656 14.964844 "/>
    </g>
    <mask id="mask3">
      <g filter="url(#alpha)">
        <rect x="0" y="0" width="48" height="48" style="fill:rgb(0%,0%,0%);fill-opacity:0.2;stroke:none;"/>
      </g>
    </mask>
    <clipPath id="clip6">
      <rect x="0" y="0" width="48" height="48"/>
    </clipPath>
    <g id="surface14" clip-path="url(#clip6)">
      <path style=" stroke:none;fill-rule:nonzero;fill:rgb(0%,0%,0%);fill-opacity:1;" d="M 14 31.5 C 14 32.878906 12.878906 34 11.5 34 C 10.121094 34 9 32.878906 9 31.5 C 9 30.121094 10.121094 29 11.5 29 C 12.878906 29 14 30.121094 14 31.5 Z M 14 31.5 "/>
    </g>
    <mask id="mask4">
      <g filter="url(#alpha)">
        <rect x="0" y="0" width="48" height="48" style="fill:rgb(0%,0%,0%);fill-opacity:0.2;stroke:none;"/>
      </g>
    </mask>
    <clipPath id="clip7">
      <rect x="0" y="0" width="48" height="48"/>
    </clipPath>
    <g id="surface17" clip-path="url(#clip7)">
      <path style=" stroke:none;fill-rule:nonzero;fill:rgb(0%,0%,0%);fill-opacity:1;" d="M 14 38.5 C 14 39.878906 12.878906 41 11.5 41 C 10.121094 41 9 39.878906 9 38.5 C 9 37.121094 10.121094 36 11.5 36 C 12.878906 36 14 37.121094 14 38.5 Z M 14 38.5 "/>
    </g>
    <mask id="mask5">
      <g filter="url(#alpha)">
        <rect x="0" y="0" width="48" height="48" style="fill:rgb(0%,0%,0%);fill-opacity:0.2;stroke:none;"/>
      </g>
    </mask>
    <clipPath id="clip8">
      <rect x="0" y="0" width="48" height="48"/>
    </clipPath>
    <g id="surface20" clip-path="url(#clip8)">
      <path style=" stroke:none;fill-rule:nonzero;fill:rgb(100%,100%,100%);fill-opacity:1;" d="M 7.167969 12 C 5.414062 12 4 13.414062 4 15.167969 L 4 16.070312 C 4 14.371094 5.371094 13 7.070312 13 L 40.929688 13 C 42.628906 13 44 14.371094 44 16.070312 L 44 15.167969 C 44 13.414062 42.585938 12 40.832031 12 Z M 7.167969 12 "/>
    </g>
    <mask id="mask6">
      <g filter="url(#alpha)">
        <rect x="0" y="0" width="48" height="48" style="fill:rgb(0%,0%,0%);fill-opacity:0.2;stroke:none;"/>
      </g>
    </mask>
    <clipPath id="clip9">
      <rect x="0" y="0" width="48" height="48"/>
    </clipPath>
    <g id="surface23" clip-path="url(#clip9)">
      <path style=" stroke:none;fill-rule:nonzero;fill:rgb(0%,0%,0%);fill-opacity:1;" d="M 19.136719 27.96875 L 38.863281 27.96875 C 38.9375 27.96875 39 28.03125 39 28.105469 L 39 28.832031 C 39 28.90625 38.9375 28.96875 38.863281 28.96875 L 19.136719 28.96875 C 19.0625 28.96875 19 28.90625 19 28.832031 L 19 28.105469 C 19 28.03125 19.0625 27.96875 19.136719 27.96875 Z M 19.136719 27.96875 "/>
    </g>
    <mask id="mask7">
      <g filter="url(#alpha)">
        <rect x="0" y="0" width="48" height="48" style="fill:rgb(0%,0%,0%);fill-opacity:0.2;stroke:none;"/>
      </g>
    </mask>
    <clipPath id="clip10">
      <rect x="0" y="0" width="48" height="48"/>
    </clipPath>
    <g id="surface26" clip-path="url(#clip10)">
      <path style=" stroke:none;fill-rule:nonzero;fill:rgb(0%,0%,0%);fill-opacity:1;" d="M 19.136719 31.96875 L 38.863281 31.96875 C 38.9375 31.96875 39 32.03125 39 32.105469 L 39 32.832031 C 39 32.90625 38.9375 32.96875 38.863281 32.96875 L 19.136719 32.96875 C 19.0625 32.96875 19 32.90625 19 32.832031 L 19 32.105469 C 19 32.03125 19.0625 31.96875 19.136719 31.96875 Z M 19.136719 31.96875 "/>
    </g>
    <mask id="mask8">
      <g filter="url(#alpha)">
        <rect x="0" y="0" width="48" height="48" style="fill:rgb(0%,0%,0%);fill-opacity:0.2;stroke:none;"/>
      </g>
    </mask>
    <clipPath id="clip11">
      <rect x="0" y="0" width="48" height="48"/>
    </clipPath>
    <g id="surface29" clip-path="url(#clip11)">
      <path style=" stroke:none;fill-rule:nonzero;fill:rgb(0%,0%,0%);fill-opacity:1;" d="M 19.136719 35.9375 L 38.863281 35.9375 C 38.9375 35.9375 39 36 39 36.074219 L 39 36.800781 C 39 36.875 38.9375 36.9375 38.863281 36.9375 L 19.136719 36.9375 C 19.0625 36.9375 19 36.875 19 36.800781 L 19 36.074219 C 19 36 19.0625 35.9375 19.136719 35.9375 Z M 19.136719 35.9375 "/>
    </g>
    <mask id="mask9">
      <g filter="url(#alpha)">
        <rect x="0" y="0" width="48" height="48" style="fill:rgb(0%,0%,0%);fill-opacity:0.2;stroke:none;"/>
      </g>
    </mask>
    <clipPath id="clip12">
      <rect x="0" y="0" width="48" height="48"/>
    </clipPath>
    <g id="surface32" clip-path="url(#clip12)">
      <path style=" stroke:none;fill-rule:nonzero;fill:rgb(0%,0%,0%);fill-opacity:1;" d="M 9.132812 18 L 38.867188 18 C 38.941406 18 39 18.058594 39 18.132812 L 39 18.84375 C 39 18.917969 38.941406 18.976562 38.867188 18.976562 L 9.132812 18.976562 C 9.058594 18.976562 9 18.917969 9 18.84375 L 9 18.132812 C 9 18.058594 9.058594 18 9.132812 18 Z M 9.132812 18 "/>
    </g>
  </defs>
  <g id="surface1">
    <use xlink:href="#surface5" mask="url(#mask0)"/>
    <path style=" stroke:none;fill-rule:nonzero;fill:rgb(0.392157%,41.176471%,63.137255%);fill-opacity:1;" d="M 35.804688 5.132812 C 35.945312 5.65625 35.488281 6.230469 34.785156 6.417969 L 6.472656 13.996094 C 5.769531 14.183594 5.085938 13.914062 4.945312 13.390625 C 4.808594 12.867188 5.265625 12.292969 5.96875 12.101562 L 34.277344 4.527344 C 34.984375 4.335938 35.667969 4.609375 35.804688 5.132812 Z M 35.804688 5.132812 "/>
    <g clip-path="url(#clip2)" clip-rule="nonzero">
      <g clip-path="url(#clip3)" clip-rule="nonzero">
        <use xlink:href="#surface8" mask="url(#mask1)"/>
      </g>
    </g>
    <use xlink:href="#surface11" mask="url(#mask2)"/>
    <path style=" stroke:none;fill-rule:nonzero;fill:rgb(1.176471%,60.784314%,89.803922%);fill-opacity:1;" d="M 7.167969 12 L 40.832031 12 C 42.582031 12 44 13.417969 44 15.167969 L 44 40.832031 C 44 42.582031 42.582031 44 40.832031 44 L 7.167969 44 C 5.417969 44 4 42.582031 4 40.832031 L 4 15.167969 C 4 13.417969 5.417969 12 7.167969 12 Z M 7.167969 12 "/>
    <use xlink:href="#surface14" mask="url(#mask3)"/>
    <path style=" stroke:none;fill-rule:nonzero;fill:rgb(0.392157%,27.45098%,40.784314%);fill-opacity:1;" d="M 14 30.5 C 14 31.878906 12.878906 33 11.5 33 C 10.121094 33 9 31.878906 9 30.5 C 9 29.121094 10.121094 28 11.5 28 C 12.878906 28 14 29.121094 14 30.5 Z M 14 30.5 "/>
    <path style=" stroke:none;fill-rule:nonzero;fill:rgb(80.392157%,93.333333%,99.607843%);fill-opacity:1;" d="M 9.6875 18 L 38.3125 18 C 38.691406 18 39 18.308594 39 18.6875 L 39 22.3125 C 39 22.691406 38.691406 23 38.3125 23 L 9.6875 23 C 9.308594 23 9 22.691406 9 22.3125 L 9 18.6875 C 9 18.308594 9.308594 18 9.6875 18 Z M 9.6875 18 "/>
    <use xlink:href="#surface17" mask="url(#mask4)"/>
    <path style=" stroke:none;fill-rule:nonzero;fill:rgb(0.392157%,27.45098%,40.784314%);fill-opacity:1;" d="M 14 37.5 C 14 38.878906 12.878906 40 11.5 40 C 10.121094 40 9 38.878906 9 37.5 C 9 36.121094 10.121094 35 11.5 35 C 12.878906 35 14 36.121094 14 37.5 Z M 14 37.5 "/>
    <path style=" stroke:none;fill-rule:nonzero;fill:rgb(80.392157%,93.333333%,99.607843%);fill-opacity:1;" d="M 19.414062 28 L 38.585938 28 C 38.816406 28 39 28.183594 39 28.414062 L 39 30.585938 C 39 30.816406 38.816406 31 38.585938 31 L 19.414062 31 C 19.183594 31 19 30.816406 19 30.585938 L 19 28.414062 C 19 28.183594 19.183594 28 19.414062 28 Z M 19.414062 28 "/>
    <path style=" stroke:none;fill-rule:nonzero;fill:rgb(80.392157%,93.333333%,99.607843%);fill-opacity:1;" d="M 19.414062 32 L 38.585938 32 C 38.816406 32 39 32.183594 39 32.414062 L 39 34.585938 C 39 34.816406 38.816406 35 38.585938 35 L 19.414062 35 C 19.183594 35 19 34.816406 19 34.585938 L 19 32.414062 C 19 32.183594 19.183594 32 19.414062 32 Z M 19.414062 32 "/>
    <path style=" stroke:none;fill-rule:nonzero;fill:rgb(80.392157%,93.333333%,99.607843%);fill-opacity:1;" d="M 19.425781 35.90625 L 38.574219 35.90625 C 38.808594 35.90625 39 36.097656 39 36.332031 L 39 38.574219 C 39 38.808594 38.808594 39 38.574219 39 L 19.425781 39 C 19.191406 39 19 38.808594 19 38.574219 L 19 36.332031 C 19 36.097656 19.191406 35.90625 19.425781 35.90625 Z M 19.425781 35.90625 "/>
    <path style=" stroke:none;fill-rule:nonzero;fill:rgb(89.803922%,50.196078%,1.176471%);fill-opacity:1;" d="M 16 19 L 18 19 L 18 23 L 16 23 Z M 16 19 "/>
    <use xlink:href="#surface20" mask="url(#mask5)"/>
    <use xlink:href="#surface23" mask="url(#mask6)"/>
    <use xlink:href="#surface26" mask="url(#mask7)"/>
    <use xlink:href="#surface29" mask="url(#mask8)"/>
    <use xlink:href="#surface32" mask="url(#mask9)"/>
  </g>
</svg>
