<?xml version="1.0" encoding="UTF-8"?>
<svg xmlns="http://www.w3.org/2000/svg" 
  xmlns:xlink="http://www.w3.org/1999/xlink" width="24pt" height="24pt" viewBox="0 0 24 24" version="1.1">
  <defs>
    <filter id="alpha" filterUnits="objectBoundingBox" x="0%" y="0%" width="100%" height="100%">
      <feColorMatrix type="matrix" in="SourceGraphic" values="0 0 0 0 1 0 0 0 0 1 0 0 0 0 1 0 0 0 1 0"/>
    </filter>
    <mask id="mask0">
      <g filter="url(#alpha)">
        <rect x="0" y="0" width="24" height="24" style="fill:rgb(0%,0%,0%);fill-opacity:0.2;stroke:none;"/>
      </g>
    </mask>
    <clipPath id="clip1">
      <rect width="24" height="24"/>
    </clipPath>
    <g id="surface6" clip-path="url(#clip1)">
      <path style=" stroke:none;fill-rule:nonzero;fill:rgb(0%,0%,0%);fill-opacity:1;" d="M 17.878906 2.984375 C 17.949219 3.246094 17.71875 3.535156 17.367188 3.628906 L 3.210938 7.417969 C 2.859375 7.511719 2.519531 7.375 2.449219 7.113281 C 2.378906 6.851562 2.605469 6.566406 2.957031 6.46875 L 17.113281 2.683594 C 17.464844 2.589844 17.808594 2.722656 17.878906 2.984375 Z M 17.878906 2.984375 "/>
    </g>
    <clipPath id="clip2">
      <path d="M 2 2 L 18 2 L 18 8 L 2 8 Z M 2 2 "/>
    </clipPath>
    <clipPath id="clip3">
      <path d="M 17.902344 2.566406 C 17.972656 2.828125 17.746094 3.117188 17.394531 3.210938 L 3.238281 7 C 2.886719 7.09375 2.542969 6.957031 2.472656 6.695312 C 2.402344 6.433594 2.632812 6.144531 2.984375 6.050781 L 17.140625 2.261719 C 17.492188 2.167969 17.832031 2.304688 17.902344 2.566406 Z M 17.902344 2.566406 "/>
    </clipPath>
    <mask id="mask1">
      <g filter="url(#alpha)">
        <rect x="0" y="0" width="24" height="24" style="fill:rgb(0%,0%,0%);fill-opacity:0.2;stroke:none;"/>
      </g>
    </mask>
    <clipPath id="clip4">
      <rect width="24" height="24"/>
    </clipPath>
    <g id="surface9" clip-path="url(#clip4)">
      <path style=" stroke:none;fill-rule:nonzero;fill:rgb(100%,100%,100%);fill-opacity:1;" d="M 17.648438 2.125 C 17.71875 2.386719 17.488281 2.675781 17.136719 2.769531 L 2.980469 6.558594 C 2.628906 6.652344 2.289062 6.515625 2.21875 6.253906 C 2.148438 5.992188 2.375 5.703125 2.726562 5.609375 L 16.882812 1.820312 C 17.234375 1.726562 17.578125 1.863281 17.648438 2.125 Z M 17.648438 2.125 "/>
    </g>
    <mask id="mask2">
      <g filter="url(#alpha)">
        <rect x="0" y="0" width="24" height="24" style="fill:rgb(0%,0%,0%);fill-opacity:0.2;stroke:none;"/>
      </g>
    </mask>
    <clipPath id="clip5">
      <rect width="24" height="24"/>
    </clipPath>
    <g id="surface12" clip-path="url(#clip5)">
      <path style=" stroke:none;fill-rule:nonzero;fill:rgb(0%,0%,0%);fill-opacity:1;" d="M 3.488281 7.484375 L 20.511719 7.484375 C 21.332031 7.484375 21.996094 8.148438 21.996094 8.96875 L 21.996094 21.003906 C 21.996094 21.824219 21.332031 22.488281 20.511719 22.488281 L 3.488281 22.488281 C 2.667969 22.488281 2 21.824219 2 21.003906 L 2 8.96875 C 2 8.148438 2.667969 7.484375 3.488281 7.484375 Z M 3.488281 7.484375 "/>
    </g>
    <mask id="mask3">
      <g filter="url(#alpha)">
        <rect x="0" y="0" width="24" height="24" style="fill:rgb(0%,0%,0%);fill-opacity:0.2;stroke:none;"/>
      </g>
    </mask>
    <clipPath id="clip6">
      <rect width="24" height="24"/>
    </clipPath>
    <g id="surface15" clip-path="url(#clip6)">
      <path style=" stroke:none;fill-rule:nonzero;fill:rgb(0%,0%,0%);fill-opacity:1;" d="M 7 15.75 C 7 16.441406 6.441406 17 5.75 17 C 5.058594 17 4.5 16.441406 4.5 15.75 C 4.5 15.058594 5.058594 14.5 5.75 14.5 C 6.441406 14.5 7 15.058594 7 15.75 Z M 7 15.75 "/>
    </g>
    <mask id="mask4">
      <g filter="url(#alpha)">
        <rect x="0" y="0" width="24" height="24" style="fill:rgb(0%,0%,0%);fill-opacity:0.2;stroke:none;"/>
      </g>
    </mask>
    <clipPath id="clip7">
      <rect width="24" height="24"/>
    </clipPath>
    <g id="surface18" clip-path="url(#clip7)">
      <path style=" stroke:none;fill-rule:nonzero;fill:rgb(0%,0%,0%);fill-opacity:1;" d="M 7 19.25 C 7 19.941406 6.441406 20.5 5.75 20.5 C 5.058594 20.5 4.5 19.941406 4.5 19.25 C 4.5 18.558594 5.058594 18 5.75 18 C 6.441406 18 7 18.558594 7 19.25 Z M 7 19.25 "/>
    </g>
    <mask id="mask5">
      <g filter="url(#alpha)">
        <rect x="0" y="0" width="24" height="24" style="fill:rgb(0%,0%,0%);fill-opacity:0.2;stroke:none;"/>
      </g>
    </mask>
    <clipPath id="clip8">
      <rect width="24" height="24"/>
    </clipPath>
    <g id="surface21" clip-path="url(#clip8)">
      <path style=" stroke:none;fill-rule:nonzero;fill:rgb(100%,100%,100%);fill-opacity:1;" d="M 3.585938 6 C 2.707031 6 2 6.707031 2 7.585938 L 2 8.035156 C 2 7.183594 2.683594 6.5 3.535156 6.5 L 20.464844 6.5 C 21.316406 6.5 22 7.183594 22 8.035156 L 22 7.585938 C 22 6.707031 21.292969 6 20.414062 6 Z M 3.585938 6 "/>
    </g>
    <mask id="mask6">
      <g filter="url(#alpha)">
        <rect x="0" y="0" width="24" height="24" style="fill:rgb(0%,0%,0%);fill-opacity:0.2;stroke:none;"/>
      </g>
    </mask>
    <clipPath id="clip9">
      <rect width="24" height="24"/>
    </clipPath>
    <g id="surface24" clip-path="url(#clip9)">
      <path style=" stroke:none;fill-rule:nonzero;fill:rgb(0%,0%,0%);fill-opacity:1;" d="M 9.570312 13.984375 L 19.429688 13.984375 C 19.46875 13.984375 19.5 14.015625 19.5 14.054688 L 19.5 14.414062 C 19.5 14.453125 19.46875 14.484375 19.429688 14.484375 L 9.570312 14.484375 C 9.53125 14.484375 9.5 14.453125 9.5 14.414062 L 9.5 14.054688 C 9.5 14.015625 9.53125 13.984375 9.570312 13.984375 Z M 9.570312 13.984375 "/>
    </g>
    <mask id="mask7">
      <g filter="url(#alpha)">
        <rect x="0" y="0" width="24" height="24" style="fill:rgb(0%,0%,0%);fill-opacity:0.2;stroke:none;"/>
      </g>
    </mask>
    <clipPath id="clip10">
      <rect width="24" height="24"/>
    </clipPath>
    <g id="surface27" clip-path="url(#clip10)">
      <path style=" stroke:none;fill-rule:nonzero;fill:rgb(0%,0%,0%);fill-opacity:1;" d="M 9.570312 15.984375 L 19.429688 15.984375 C 19.46875 15.984375 19.5 16.015625 19.5 16.054688 L 19.5 16.414062 C 19.5 16.453125 19.46875 16.484375 19.429688 16.484375 L 9.570312 16.484375 C 9.53125 16.484375 9.5 16.453125 9.5 16.414062 L 9.5 16.054688 C 9.5 16.015625 9.53125 15.984375 9.570312 15.984375 Z M 9.570312 15.984375 "/>
    </g>
    <mask id="mask8">
      <g filter="url(#alpha)">
        <rect x="0" y="0" width="24" height="24" style="fill:rgb(0%,0%,0%);fill-opacity:0.2;stroke:none;"/>
      </g>
    </mask>
    <clipPath id="clip11">
      <rect width="24" height="24"/>
    </clipPath>
    <g id="surface30" clip-path="url(#clip11)">
      <path style=" stroke:none;fill-rule:nonzero;fill:rgb(0%,0%,0%);fill-opacity:1;" d="M 9.570312 17.96875 L 19.429688 17.96875 C 19.46875 17.96875 19.5 18 19.5 18.039062 L 19.5 18.398438 C 19.5 18.4375 19.46875 18.46875 19.429688 18.46875 L 9.570312 18.46875 C 9.53125 18.46875 9.5 18.4375 9.5 18.398438 L 9.5 18.039062 C 9.5 18 9.53125 17.96875 9.570312 17.96875 Z M 9.570312 17.96875 "/>
    </g>
    <mask id="mask9">
      <g filter="url(#alpha)">
        <rect x="0" y="0" width="24" height="24" style="fill:rgb(0%,0%,0%);fill-opacity:0.2;stroke:none;"/>
      </g>
    </mask>
    <clipPath id="clip12">
      <rect width="24" height="24"/>
    </clipPath>
    <g id="surface33" clip-path="url(#clip12)">
      <path style=" stroke:none;fill-rule:nonzero;fill:rgb(0%,0%,0%);fill-opacity:1;" d="M 4.566406 9 L 19.433594 9 C 19.46875 9 19.5 9.03125 19.5 9.066406 L 19.5 9.421875 C 19.5 9.460938 19.46875 9.488281 19.433594 9.488281 L 4.566406 9.488281 C 4.53125 9.488281 4.5 9.460938 4.5 9.421875 L 4.5 9.066406 C 4.5 9.03125 4.53125 9 4.566406 9 Z M 4.566406 9 "/>
    </g>
  </defs>
  <g id="surface1">
    <use xlink:href="#surface6" mask="url(#mask0)"/>
    <path style=" stroke:none;fill-rule:nonzero;fill:rgb(0.392157%,41.176471%,63.137255%);fill-opacity:1;" d="M 17.902344 2.566406 C 17.972656 2.828125 17.746094 3.117188 17.394531 3.210938 L 3.238281 7 C 2.886719 7.09375 2.542969 6.957031 2.472656 6.695312 C 2.402344 6.433594 2.632812 6.144531 2.984375 6.050781 L 17.140625 2.261719 C 17.492188 2.167969 17.832031 2.304688 17.902344 2.566406 Z M 17.902344 2.566406 "/>
    <g clip-path="url(#clip2)" clip-rule="nonzero">
      <g clip-path="url(#clip3)" clip-rule="nonzero">
        <use xlink:href="#surface9" mask="url(#mask1)"/>
      </g>
    </g>
    <use xlink:href="#surface12" mask="url(#mask2)"/>
    <path style=" stroke:none;fill-rule:nonzero;fill:rgb(1.176471%,60.784314%,89.803922%);fill-opacity:1;" d="M 3.585938 6 L 20.414062 6 C 21.289062 6 22 6.710938 22 7.585938 L 22 20.414062 C 22 21.289062 21.289062 22 20.414062 22 L 3.585938 22 C 2.710938 22 2 21.289062 2 20.414062 L 2 7.585938 C 2 6.710938 2.710938 6 3.585938 6 Z M 3.585938 6 "/>
    <use xlink:href="#surface15" mask="url(#mask3)"/>
    <path style=" stroke:none;fill-rule:nonzero;fill:rgb(0.392157%,27.45098%,40.784314%);fill-opacity:1;" d="M 7 15.25 C 7 15.941406 6.441406 16.5 5.75 16.5 C 5.058594 16.5 4.5 15.941406 4.5 15.25 C 4.5 14.558594 5.058594 14 5.75 14 C 6.441406 14 7 14.558594 7 15.25 Z M 7 15.25 "/>
    <path style=" stroke:none;fill-rule:nonzero;fill:rgb(80.392157%,93.333333%,99.607843%);fill-opacity:1;" d="M 4.84375 9 L 19.15625 9 C 19.347656 9 19.5 9.152344 19.5 9.34375 L 19.5 11.15625 C 19.5 11.347656 19.347656 11.5 19.15625 11.5 L 4.84375 11.5 C 4.652344 11.5 4.5 11.347656 4.5 11.15625 L 4.5 9.34375 C 4.5 9.152344 4.652344 9 4.84375 9 Z M 4.84375 9 "/>
    <use xlink:href="#surface18" mask="url(#mask4)"/>
    <path style=" stroke:none;fill-rule:nonzero;fill:rgb(0.392157%,27.45098%,40.784314%);fill-opacity:1;" d="M 7 18.75 C 7 19.441406 6.441406 20 5.75 20 C 5.058594 20 4.5 19.441406 4.5 18.75 C 4.5 18.058594 5.058594 17.5 5.75 17.5 C 6.441406 17.5 7 18.058594 7 18.75 Z M 7 18.75 "/>
    <path style=" stroke:none;fill-rule:nonzero;fill:rgb(80.392157%,93.333333%,99.607843%);fill-opacity:1;" d="M 9.707031 14 L 19.292969 14 C 19.40625 14 19.5 14.09375 19.5 14.207031 L 19.5 15.292969 C 19.5 15.40625 19.40625 15.5 19.292969 15.5 L 9.707031 15.5 C 9.59375 15.5 9.5 15.40625 9.5 15.292969 L 9.5 14.207031 C 9.5 14.09375 9.59375 14 9.707031 14 Z M 9.707031 14 "/>
    <path style=" stroke:none;fill-rule:nonzero;fill:rgb(80.392157%,93.333333%,99.607843%);fill-opacity:1;" d="M 9.707031 16 L 19.292969 16 C 19.40625 16 19.5 16.09375 19.5 16.207031 L 19.5 17.292969 C 19.5 17.40625 19.40625 17.5 19.292969 17.5 L 9.707031 17.5 C 9.59375 17.5 9.5 17.40625 9.5 17.292969 L 9.5 16.207031 C 9.5 16.09375 9.59375 16 9.707031 16 Z M 9.707031 16 "/>
    <path style=" stroke:none;fill-rule:nonzero;fill:rgb(80.392157%,93.333333%,99.607843%);fill-opacity:1;" d="M 9.710938 17.953125 L 19.289062 17.953125 C 19.40625 17.953125 19.5 18.046875 19.5 18.164062 L 19.5 19.289062 C 19.5 19.40625 19.40625 19.5 19.289062 19.5 L 9.710938 19.5 C 9.59375 19.5 9.5 19.40625 9.5 19.289062 L 9.5 18.164062 C 9.5 18.046875 9.59375 17.953125 9.710938 17.953125 Z M 9.710938 17.953125 "/>
    <path style=" stroke:none;fill-rule:nonzero;fill:rgb(89.803922%,50.196078%,1.176471%);fill-opacity:1;" d="M 8 9.5 L 9 9.5 L 9 11.5 L 8 11.5 Z M 8 9.5 "/>
    <use xlink:href="#surface21" mask="url(#mask5)"/>
    <use xlink:href="#surface24" mask="url(#mask6)"/>
    <use xlink:href="#surface27" mask="url(#mask7)"/>
    <use xlink:href="#surface30" mask="url(#mask8)"/>
    <use xlink:href="#surface33" mask="url(#mask9)"/>
  </g>
</svg>
