<?xml version="1.0" encoding="UTF-8" standalone="no"?>
<!-- Created with Inkscape (http://www.inkscape.org/) -->

<svg
   xmlns:dc="http://purl.org/dc/elements/1.1/"
   xmlns:cc="http://creativecommons.org/ns#"
   xmlns:rdf="http://www.w3.org/1999/02/22-rdf-syntax-ns#"
   xmlns:svg="http://www.w3.org/2000/svg"
   xmlns="http://www.w3.org/2000/svg"
   xmlns:xlink="http://www.w3.org/1999/xlink"
   xmlns:sodipodi="http://sodipodi.sourceforge.net/DTD/sodipodi-0.dtd"
   xmlns:inkscape="http://www.inkscape.org/namespaces/inkscape"
   width="16"
   height="16"
   viewBox="0 0 16 16"
   id="svg153078"
   version="1.1"
   inkscape:version="0.91 r13725"
   sodipodi:docname="eradio-genre.svg">
  <defs
     id="defs153080">
    <symbol
       id="music"
       class="Web-Application-Icons">
      <title
         id="title222514">Music</title>
      <path
         transform="matrix(0.05,0,0,-0.05,0,76.8)"
         d="M1536 1312v-1120q0 -50 -34 -89t-86 -60.5t-103.5 -32t-96.5 -10.5t-96.5 10.5t-103.5 32t-86 60.5t-34 89t34 89t86 60.5t103.5 32t96.5 10.5q105 0 192 -39v537l-768 -237v-709q0 -50 -34 -89t-86 -60.5t-103.5 -32t-96.5 -10.5t-96.5 10.5t-103.5 32t-86 60.5t-34 89 t34 89t86 60.5t103.5 32t96.5 10.5q105 0 192 -39v967q0 31 19 56.5t49 35.5l832 256q12 4 28 4q40 0 68 -28t28 -68z"
         id="path222516" />
    </symbol>
  </defs>
  <sodipodi:namedview
     id="base"
     pagecolor="#ffffff"
     bordercolor="#666666"
     borderopacity="1.0"
     inkscape:pageopacity="0.0"
     inkscape:pageshadow="2"
     inkscape:zoom="8"
     inkscape:cx="-30.584183"
     inkscape:cy="13.562863"
     inkscape:document-units="px"
     inkscape:current-layer="layer1"
     showgrid="false"
     units="px"
     inkscape:object-paths="false"
     inkscape:snap-intersection-paths="false"
     inkscape:object-nodes="false"
     inkscape:snap-smooth-nodes="false"
     inkscape:snap-midpoints="false"
     inkscape:window-width="1366"
     inkscape:window-height="712"
     inkscape:window-x="0"
     inkscape:window-y="30"
     inkscape:window-maximized="1">
    <inkscape:grid
       type="xygrid"
       id="grid227870" />
  </sodipodi:namedview>
  <metadata
     id="metadata153083">
    <rdf:RDF>
      <cc:Work
         rdf:about="">
        <dc:format>image/svg+xml</dc:format>
        <dc:type
           rdf:resource="http://purl.org/dc/dcmitype/StillImage" />
        <dc:title />
      </cc:Work>
    </rdf:RDF>
  </metadata>
  <g
     inkscape:label="Layer 1"
     inkscape:groupmode="layer"
     id="layer1"
     transform="translate(0,-1036.3622)">
    <use
       id="use81399"
       xlink:href="#music"
       x="0"
       y="0"
       width="100%"
       height="100%"
       transform="matrix(0.1543068,0,0,0.1543068,0.02239329,1037.517)"
       style="fill:#19405a;fill-opacity:1" />
  </g>
</svg>
