<?xml version="1.0" encoding="UTF-8"?>
<svg xmlns="http://www.w3.org/2000/svg" 
  xmlns:xlink="http://www.w3.org/1999/xlink" width="16pt" height="16pt" viewBox="0 0 16 16" version="1.1">
  <defs>
    <filter id="alpha" filterUnits="objectBoundingBox" x="0%" y="0%" width="100%" height="100%">
      <feColorMatrix type="matrix" in="SourceGraphic" values="0 0 0 0 1 0 0 0 0 1 0 0 0 0 1 0 0 0 1 0"/>
    </filter>
    <mask id="mask0">
      <g filter="url(#alpha)">
        <rect x="0" y="0" width="16" height="16" style="fill:rgb(0%,0%,0%);fill-opacity:0.2;stroke:none;"/>
      </g>
    </mask>
    <clipPath id="clip1">
      <rect width="16" height="16"/>
    </clipPath>
    <g id="surface6" clip-path="url(#clip1)">
      <path style=" stroke:none;fill-rule:nonzero;fill:rgb(0%,0%,0%);fill-opacity:1;" d="M 11.917969 1.988281 C 11.964844 2.164062 11.8125 2.355469 11.578125 2.417969 L 2.140625 4.945312 C 1.90625 5.007812 1.679688 4.917969 1.632812 4.742188 C 1.585938 4.570312 1.738281 4.375 1.972656 4.3125 L 11.410156 1.789062 C 11.644531 1.726562 11.871094 1.816406 11.917969 1.988281 Z M 11.917969 1.988281 "/>
    </g>
    <clipPath id="clip2">
      <path d="M 1 1 L 12 1 L 12 5 L 1 5 Z M 1 1 "/>
    </clipPath>
    <clipPath id="clip3">
      <path d="M 11.933594 1.710938 C 11.980469 1.886719 11.828125 2.078125 11.59375 2.140625 L 2.15625 4.664062 C 1.921875 4.726562 1.695312 4.636719 1.648438 4.464844 C 1.601562 4.289062 1.753906 4.097656 1.988281 4.035156 L 11.425781 1.507812 C 11.660156 1.445312 11.890625 1.535156 11.933594 1.710938 Z M 11.933594 1.710938 "/>
    </clipPath>
    <mask id="mask1">
      <g filter="url(#alpha)">
        <rect x="0" y="0" width="16" height="16" style="fill:rgb(0%,0%,0%);fill-opacity:0.2;stroke:none;"/>
      </g>
    </mask>
    <clipPath id="clip4">
      <rect width="16" height="16"/>
    </clipPath>
    <g id="surface9" clip-path="url(#clip4)">
      <path style=" stroke:none;fill-rule:nonzero;fill:rgb(100%,100%,100%);fill-opacity:1;" d="M 11.765625 1.417969 C 11.8125 1.589844 11.660156 1.78125 11.425781 1.847656 L 1.988281 4.371094 C 1.753906 4.433594 1.527344 4.34375 1.480469 4.167969 C 1.433594 3.996094 1.585938 3.804688 1.820312 3.738281 L 11.257812 1.214844 C 11.492188 1.152344 11.71875 1.242188 11.765625 1.417969 Z M 11.765625 1.417969 "/>
    </g>
    <mask id="mask2">
      <g filter="url(#alpha)">
        <rect x="0" y="0" width="16" height="16" style="fill:rgb(0%,0%,0%);fill-opacity:0.2;stroke:none;"/>
      </g>
    </mask>
    <clipPath id="clip5">
      <rect width="16" height="16"/>
    </clipPath>
    <g id="surface12" clip-path="url(#clip5)">
      <path style=" stroke:none;fill-rule:nonzero;fill:rgb(0%,0%,0%);fill-opacity:1;" d="M 2.324219 4.988281 L 13.671875 4.988281 C 14.21875 4.988281 14.664062 5.433594 14.664062 5.980469 L 14.664062 14.003906 C 14.664062 14.550781 14.21875 14.992188 13.671875 14.992188 L 2.324219 14.992188 C 1.777344 14.992188 1.332031 14.550781 1.332031 14.003906 L 1.332031 5.980469 C 1.332031 5.433594 1.777344 4.988281 2.324219 4.988281 Z M 2.324219 4.988281 "/>
    </g>
    <mask id="mask3">
      <g filter="url(#alpha)">
        <rect x="0" y="0" width="16" height="16" style="fill:rgb(0%,0%,0%);fill-opacity:0.2;stroke:none;"/>
      </g>
    </mask>
    <clipPath id="clip6">
      <rect width="16" height="16"/>
    </clipPath>
    <g id="surface15" clip-path="url(#clip6)">
      <path style=" stroke:none;fill-rule:nonzero;fill:rgb(0%,0%,0%);fill-opacity:1;" d="M 4.667969 10.5 C 4.667969 10.960938 4.292969 11.332031 3.832031 11.332031 C 3.375 11.332031 3 10.960938 3 10.5 C 3 10.039062 3.375 9.667969 3.832031 9.667969 C 4.292969 9.667969 4.667969 10.039062 4.667969 10.5 Z M 4.667969 10.5 "/>
    </g>
    <mask id="mask4">
      <g filter="url(#alpha)">
        <rect x="0" y="0" width="16" height="16" style="fill:rgb(0%,0%,0%);fill-opacity:0.2;stroke:none;"/>
      </g>
    </mask>
    <clipPath id="clip7">
      <rect width="16" height="16"/>
    </clipPath>
    <g id="surface18" clip-path="url(#clip7)">
      <path style=" stroke:none;fill-rule:nonzero;fill:rgb(0%,0%,0%);fill-opacity:1;" d="M 4.667969 12.832031 C 4.667969 13.292969 4.292969 13.667969 3.832031 13.667969 C 3.375 13.667969 3 13.292969 3 12.832031 C 3 12.375 3.375 12 3.832031 12 C 4.292969 12 4.667969 12.375 4.667969 12.832031 Z M 4.667969 12.832031 "/>
    </g>
    <mask id="mask5">
      <g filter="url(#alpha)">
        <rect x="0" y="0" width="16" height="16" style="fill:rgb(0%,0%,0%);fill-opacity:0.2;stroke:none;"/>
      </g>
    </mask>
    <clipPath id="clip8">
      <rect width="16" height="16"/>
    </clipPath>
    <g id="surface21" clip-path="url(#clip8)">
      <path style=" stroke:none;fill-rule:nonzero;fill:rgb(100%,100%,100%);fill-opacity:1;" d="M 2.390625 4 C 1.804688 4 1.332031 4.472656 1.332031 5.054688 L 1.332031 5.355469 C 1.332031 4.789062 1.789062 4.332031 2.355469 4.332031 L 13.644531 4.332031 C 14.210938 4.332031 14.667969 4.789062 14.667969 5.355469 L 14.667969 5.054688 C 14.667969 4.472656 14.195312 4 13.609375 4 Z M 2.390625 4 "/>
    </g>
    <mask id="mask6">
      <g filter="url(#alpha)">
        <rect x="0" y="0" width="16" height="16" style="fill:rgb(0%,0%,0%);fill-opacity:0.2;stroke:none;"/>
      </g>
    </mask>
    <clipPath id="clip9">
      <rect width="16" height="16"/>
    </clipPath>
    <g id="surface24" clip-path="url(#clip9)">
      <path style=" stroke:none;fill-rule:nonzero;fill:rgb(0%,0%,0%);fill-opacity:1;" d="M 6.378906 9.324219 L 12.953125 9.324219 C 12.980469 9.324219 13 9.34375 13 9.367188 L 13 9.609375 C 13 9.636719 12.980469 9.65625 12.953125 9.65625 L 6.378906 9.65625 C 6.355469 9.65625 6.332031 9.636719 6.332031 9.609375 L 6.332031 9.367188 C 6.332031 9.34375 6.355469 9.324219 6.378906 9.324219 Z M 6.378906 9.324219 "/>
    </g>
    <mask id="mask7">
      <g filter="url(#alpha)">
        <rect x="0" y="0" width="16" height="16" style="fill:rgb(0%,0%,0%);fill-opacity:0.2;stroke:none;"/>
      </g>
    </mask>
    <clipPath id="clip10">
      <rect width="16" height="16"/>
    </clipPath>
    <g id="surface27" clip-path="url(#clip10)">
      <path style=" stroke:none;fill-rule:nonzero;fill:rgb(0%,0%,0%);fill-opacity:1;" d="M 6.378906 10.65625 L 12.953125 10.65625 C 12.980469 10.65625 13 10.675781 13 10.703125 L 13 10.945312 C 13 10.96875 12.980469 10.988281 12.953125 10.988281 L 6.378906 10.988281 C 6.355469 10.988281 6.332031 10.96875 6.332031 10.945312 L 6.332031 10.703125 C 6.332031 10.675781 6.355469 10.65625 6.378906 10.65625 Z M 6.378906 10.65625 "/>
    </g>
    <mask id="mask8">
      <g filter="url(#alpha)">
        <rect x="0" y="0" width="16" height="16" style="fill:rgb(0%,0%,0%);fill-opacity:0.2;stroke:none;"/>
      </g>
    </mask>
    <clipPath id="clip11">
      <rect width="16" height="16"/>
    </clipPath>
    <g id="surface30" clip-path="url(#clip11)">
      <path style=" stroke:none;fill-rule:nonzero;fill:rgb(0%,0%,0%);fill-opacity:1;" d="M 6.378906 11.980469 L 12.953125 11.980469 C 12.980469 11.980469 13 12 13 12.023438 L 13 12.265625 C 13 12.292969 12.980469 12.3125 12.953125 12.3125 L 6.378906 12.3125 C 6.355469 12.3125 6.332031 12.292969 6.332031 12.265625 L 6.332031 12.023438 C 6.332031 12 6.355469 11.980469 6.378906 11.980469 Z M 6.378906 11.980469 "/>
    </g>
    <mask id="mask9">
      <g filter="url(#alpha)">
        <rect x="0" y="0" width="16" height="16" style="fill:rgb(0%,0%,0%);fill-opacity:0.2;stroke:none;"/>
      </g>
    </mask>
    <clipPath id="clip12">
      <rect width="16" height="16"/>
    </clipPath>
    <g id="surface33" clip-path="url(#clip12)">
      <path style=" stroke:none;fill-rule:nonzero;fill:rgb(0%,0%,0%);fill-opacity:1;" d="M 3.042969 6 L 12.957031 6 C 12.980469 6 13 6.019531 13 6.042969 L 13 6.28125 C 13 6.304688 12.980469 6.324219 12.957031 6.324219 L 3.042969 6.324219 C 3.019531 6.324219 3 6.304688 3 6.28125 L 3 6.042969 C 3 6.019531 3.019531 6 3.042969 6 Z M 3.042969 6 "/>
    </g>
  </defs>
  <g id="surface1">
    <use xlink:href="#surface6" mask="url(#mask0)"/>
    <path style=" stroke:none;fill-rule:nonzero;fill:rgb(0.392157%,41.176471%,63.137255%);fill-opacity:1;" d="M 11.933594 1.710938 C 11.980469 1.886719 11.828125 2.078125 11.59375 2.140625 L 2.15625 4.664062 C 1.921875 4.726562 1.695312 4.636719 1.648438 4.464844 C 1.601562 4.289062 1.753906 4.097656 1.988281 4.035156 L 11.425781 1.507812 C 11.660156 1.445312 11.890625 1.535156 11.933594 1.710938 Z M 11.933594 1.710938 "/>
    <g clip-path="url(#clip2)" clip-rule="nonzero">
      <g clip-path="url(#clip3)" clip-rule="nonzero">
        <use xlink:href="#surface9" mask="url(#mask1)"/>
      </g>
    </g>
    <use xlink:href="#surface12" mask="url(#mask2)"/>
    <path style=" stroke:none;fill-rule:nonzero;fill:rgb(1.176471%,60.784314%,89.803922%);fill-opacity:1;" d="M 2.390625 4 L 13.609375 4 C 14.195312 4 14.667969 4.472656 14.667969 5.054688 L 14.667969 13.609375 C 14.667969 14.195312 14.195312 14.667969 13.609375 14.667969 L 2.390625 14.667969 C 1.804688 14.667969 1.332031 14.195312 1.332031 13.609375 L 1.332031 5.054688 C 1.332031 4.472656 1.804688 4 2.390625 4 Z M 2.390625 4 "/>
    <use xlink:href="#surface15" mask="url(#mask3)"/>
    <path style=" stroke:none;fill-rule:nonzero;fill:rgb(0.392157%,27.45098%,40.784314%);fill-opacity:1;" d="M 4.667969 10.167969 C 4.667969 10.625 4.292969 11 3.832031 11 C 3.375 11 3 10.625 3 10.167969 C 3 9.707031 3.375 9.332031 3.832031 9.332031 C 4.292969 9.332031 4.667969 9.707031 4.667969 10.167969 Z M 4.667969 10.167969 "/>
    <path style=" stroke:none;fill-rule:nonzero;fill:rgb(80.392157%,93.333333%,99.607843%);fill-opacity:1;" d="M 3.230469 6 L 12.769531 6 C 12.898438 6 13 6.101562 13 6.230469 L 13 7.4375 C 13 7.5625 12.898438 7.667969 12.769531 7.667969 L 3.230469 7.667969 C 3.101562 7.667969 3 7.5625 3 7.4375 L 3 6.230469 C 3 6.101562 3.101562 6 3.230469 6 Z M 3.230469 6 "/>
    <use xlink:href="#surface18" mask="url(#mask4)"/>
    <path style=" stroke:none;fill-rule:nonzero;fill:rgb(0.392157%,27.45098%,40.784314%);fill-opacity:1;" d="M 4.667969 12.5 C 4.667969 12.960938 4.292969 13.332031 3.832031 13.332031 C 3.375 13.332031 3 12.960938 3 12.5 C 3 12.039062 3.375 11.667969 3.832031 11.667969 C 4.292969 11.667969 4.667969 12.039062 4.667969 12.5 Z M 4.667969 12.5 "/>
    <path style=" stroke:none;fill-rule:nonzero;fill:rgb(80.392157%,93.333333%,99.607843%);fill-opacity:1;" d="M 6.472656 9.332031 L 12.863281 9.332031 C 12.9375 9.332031 13 9.394531 13 9.472656 L 13 10.195312 C 13 10.273438 12.9375 10.332031 12.863281 10.332031 L 6.472656 10.332031 C 6.394531 10.332031 6.332031 10.273438 6.332031 10.195312 L 6.332031 9.472656 C 6.332031 9.394531 6.394531 9.332031 6.472656 9.332031 Z M 6.472656 9.332031 "/>
    <path style=" stroke:none;fill-rule:nonzero;fill:rgb(80.392157%,93.333333%,99.607843%);fill-opacity:1;" d="M 6.472656 10.667969 L 12.863281 10.667969 C 12.9375 10.667969 13 10.726562 13 10.804688 L 13 11.527344 C 13 11.605469 12.9375 11.667969 12.863281 11.667969 L 6.472656 11.667969 C 6.394531 11.667969 6.332031 11.605469 6.332031 11.527344 L 6.332031 10.804688 C 6.332031 10.726562 6.394531 10.667969 6.472656 10.667969 Z M 6.472656 10.667969 "/>
    <path style=" stroke:none;fill-rule:nonzero;fill:rgb(80.392157%,93.333333%,99.607843%);fill-opacity:1;" d="M 6.476562 11.96875 L 12.859375 11.96875 C 12.9375 11.96875 13 12.03125 13 12.109375 L 13 12.859375 C 13 12.9375 12.9375 13 12.859375 13 L 6.476562 13 C 6.398438 13 6.332031 12.9375 6.332031 12.859375 L 6.332031 12.109375 C 6.332031 12.03125 6.398438 11.96875 6.476562 11.96875 Z M 6.476562 11.96875 "/>
    <path style=" stroke:none;fill-rule:nonzero;fill:rgb(89.803922%,50.196078%,1.176471%);fill-opacity:1;" d="M 5.332031 6.332031 L 6 6.332031 L 6 7.667969 L 5.332031 7.667969 Z M 5.332031 6.332031 "/>
    <use xlink:href="#surface21" mask="url(#mask5)"/>
    <use xlink:href="#surface24" mask="url(#mask6)"/>
    <use xlink:href="#surface27" mask="url(#mask7)"/>
    <use xlink:href="#surface30" mask="url(#mask8)"/>
    <use xlink:href="#surface33" mask="url(#mask9)"/>
  </g>
</svg>
