<?xml version="1.0" encoding="UTF-8"?>
<svg xmlns="http://www.w3.org/2000/svg" 
  xmlns:xlink="http://www.w3.org/1999/xlink" width="32pt" height="32pt" viewBox="0 0 32 32" version="1.1">
  <defs>
    <filter id="alpha" filterUnits="objectBoundingBox" x="0%" y="0%" width="100%" height="100%">
      <feColorMatrix type="matrix" in="SourceGraphic" values="0 0 0 0 1 0 0 0 0 1 0 0 0 0 1 0 0 0 1 0"/>
    </filter>
    <mask id="mask0">
      <g filter="url(#alpha)">
        <rect x="0" y="0" width="32" height="32" style="fill:rgb(0%,0%,0%);fill-opacity:0.2;stroke:none;"/>
      </g>
    </mask>
    <clipPath id="clip1">
      <rect width="32" height="32"/>
    </clipPath>
    <g id="surface6" clip-path="url(#clip1)">
      <path style=" stroke:none;fill-rule:nonzero;fill:rgb(0%,0%,0%);fill-opacity:1;" d="M 23.835938 3.980469 C 23.929688 4.328125 23.625 4.714844 23.15625 4.839844 L 4.28125 9.890625 C 3.8125 10.015625 3.359375 9.835938 3.265625 9.484375 C 3.171875 9.136719 3.476562 8.753906 3.945312 8.628906 L 22.820312 3.574219 C 23.289062 3.449219 23.746094 3.632812 23.835938 3.980469 Z M 23.835938 3.980469 "/>
    </g>
    <clipPath id="clip2">
      <path d="M 3 2 L 24 2 L 24 10 L 3 10 Z M 3 2 "/>
    </clipPath>
    <clipPath id="clip3">
      <path d="M 23.871094 3.421875 C 23.964844 3.769531 23.660156 4.152344 23.191406 4.28125 L 4.316406 9.332031 C 3.847656 9.457031 3.390625 9.277344 3.296875 8.925781 C 3.203125 8.578125 3.507812 8.195312 3.976562 8.070312 L 22.851562 3.015625 C 23.320312 2.890625 23.777344 3.074219 23.871094 3.421875 Z M 23.871094 3.421875 "/>
    </clipPath>
    <mask id="mask1">
      <g filter="url(#alpha)">
        <rect x="0" y="0" width="32" height="32" style="fill:rgb(0%,0%,0%);fill-opacity:0.2;stroke:none;"/>
      </g>
    </mask>
    <clipPath id="clip4">
      <rect width="32" height="32"/>
    </clipPath>
    <g id="surface9" clip-path="url(#clip4)">
      <path style=" stroke:none;fill-rule:nonzero;fill:rgb(100%,100%,100%);fill-opacity:1;" d="M 23.53125 2.832031 C 23.625 3.183594 23.320312 3.566406 22.851562 3.691406 L 3.976562 8.742188 C 3.507812 8.867188 3.050781 8.6875 2.957031 8.339844 C 2.863281 7.992188 3.167969 7.605469 3.636719 7.480469 L 22.511719 2.429688 C 22.980469 2.304688 23.4375 2.484375 23.53125 2.832031 Z M 23.53125 2.832031 "/>
    </g>
    <mask id="mask2">
      <g filter="url(#alpha)">
        <rect x="0" y="0" width="32" height="32" style="fill:rgb(0%,0%,0%);fill-opacity:0.2;stroke:none;"/>
      </g>
    </mask>
    <clipPath id="clip5">
      <rect width="32" height="32"/>
    </clipPath>
    <g id="surface12" clip-path="url(#clip5)">
      <path style=" stroke:none;fill-rule:nonzero;fill:rgb(0%,0%,0%);fill-opacity:1;" d="M 4.648438 9.976562 L 27.347656 9.976562 C 28.441406 9.976562 29.328125 10.863281 29.328125 11.957031 L 29.328125 28.003906 C 29.328125 29.097656 28.441406 29.988281 27.347656 29.988281 L 4.648438 29.988281 C 3.554688 29.988281 2.667969 29.097656 2.667969 28.003906 L 2.667969 11.957031 C 2.667969 10.863281 3.554688 9.976562 4.648438 9.976562 Z M 4.648438 9.976562 "/>
    </g>
    <mask id="mask3">
      <g filter="url(#alpha)">
        <rect x="0" y="0" width="32" height="32" style="fill:rgb(0%,0%,0%);fill-opacity:0.2;stroke:none;"/>
      </g>
    </mask>
    <clipPath id="clip6">
      <rect width="32" height="32"/>
    </clipPath>
    <g id="surface15" clip-path="url(#clip6)">
      <path style=" stroke:none;fill-rule:nonzero;fill:rgb(0%,0%,0%);fill-opacity:1;" d="M 9.332031 21 C 9.332031 21.921875 8.585938 22.667969 7.667969 22.667969 C 6.746094 22.667969 6 21.921875 6 21 C 6 20.078125 6.746094 19.332031 7.667969 19.332031 C 8.585938 19.332031 9.332031 20.078125 9.332031 21 Z M 9.332031 21 "/>
    </g>
    <mask id="mask4">
      <g filter="url(#alpha)">
        <rect x="0" y="0" width="32" height="32" style="fill:rgb(0%,0%,0%);fill-opacity:0.2;stroke:none;"/>
      </g>
    </mask>
    <clipPath id="clip7">
      <rect width="32" height="32"/>
    </clipPath>
    <g id="surface18" clip-path="url(#clip7)">
      <path style=" stroke:none;fill-rule:nonzero;fill:rgb(0%,0%,0%);fill-opacity:1;" d="M 9.332031 25.667969 C 9.332031 26.585938 8.585938 27.332031 7.667969 27.332031 C 6.746094 27.332031 6 26.585938 6 25.667969 C 6 24.746094 6.746094 24 7.667969 24 C 8.585938 24 9.332031 24.746094 9.332031 25.667969 Z M 9.332031 25.667969 "/>
    </g>
    <mask id="mask5">
      <g filter="url(#alpha)">
        <rect x="0" y="0" width="32" height="32" style="fill:rgb(0%,0%,0%);fill-opacity:0.2;stroke:none;"/>
      </g>
    </mask>
    <clipPath id="clip8">
      <rect width="32" height="32"/>
    </clipPath>
    <g id="surface21" clip-path="url(#clip8)">
      <path style=" stroke:none;fill-rule:nonzero;fill:rgb(100%,100%,100%);fill-opacity:1;" d="M 4.777344 8 C 3.609375 8 2.667969 8.941406 2.667969 10.113281 L 2.667969 10.714844 C 2.667969 9.578125 3.578125 8.667969 4.714844 8.667969 L 27.285156 8.667969 C 28.421875 8.667969 29.332031 9.578125 29.332031 10.714844 L 29.332031 10.113281 C 29.332031 8.941406 28.390625 8 27.222656 8 Z M 4.777344 8 "/>
    </g>
    <mask id="mask6">
      <g filter="url(#alpha)">
        <rect x="0" y="0" width="32" height="32" style="fill:rgb(0%,0%,0%);fill-opacity:0.2;stroke:none;"/>
      </g>
    </mask>
    <clipPath id="clip9">
      <rect width="32" height="32"/>
    </clipPath>
    <g id="surface24" clip-path="url(#clip9)">
      <path style=" stroke:none;fill-rule:nonzero;fill:rgb(0%,0%,0%);fill-opacity:1;" d="M 12.757812 18.644531 L 25.910156 18.644531 C 25.957031 18.644531 26 18.6875 26 18.738281 L 26 19.222656 C 26 19.269531 25.957031 19.3125 25.910156 19.3125 L 12.757812 19.3125 C 12.707031 19.3125 12.667969 19.269531 12.667969 19.222656 L 12.667969 18.738281 C 12.667969 18.6875 12.707031 18.644531 12.757812 18.644531 Z M 12.757812 18.644531 "/>
    </g>
    <mask id="mask7">
      <g filter="url(#alpha)">
        <rect x="0" y="0" width="32" height="32" style="fill:rgb(0%,0%,0%);fill-opacity:0.2;stroke:none;"/>
      </g>
    </mask>
    <clipPath id="clip10">
      <rect width="32" height="32"/>
    </clipPath>
    <g id="surface27" clip-path="url(#clip10)">
      <path style=" stroke:none;fill-rule:nonzero;fill:rgb(0%,0%,0%);fill-opacity:1;" d="M 12.757812 21.3125 L 25.910156 21.3125 C 25.957031 21.3125 26 21.355469 26 21.402344 L 26 21.886719 C 26 21.9375 25.957031 21.980469 25.910156 21.980469 L 12.757812 21.980469 C 12.707031 21.980469 12.667969 21.9375 12.667969 21.886719 L 12.667969 21.402344 C 12.667969 21.355469 12.707031 21.3125 12.757812 21.3125 Z M 12.757812 21.3125 "/>
    </g>
    <mask id="mask8">
      <g filter="url(#alpha)">
        <rect x="0" y="0" width="32" height="32" style="fill:rgb(0%,0%,0%);fill-opacity:0.2;stroke:none;"/>
      </g>
    </mask>
    <clipPath id="clip11">
      <rect width="32" height="32"/>
    </clipPath>
    <g id="surface30" clip-path="url(#clip11)">
      <path style=" stroke:none;fill-rule:nonzero;fill:rgb(0%,0%,0%);fill-opacity:1;" d="M 12.757812 23.957031 L 25.910156 23.957031 C 25.957031 23.957031 26 24 26 24.050781 L 26 24.535156 C 26 24.582031 25.957031 24.625 25.910156 24.625 L 12.757812 24.625 C 12.707031 24.625 12.667969 24.582031 12.667969 24.535156 L 12.667969 24.050781 C 12.667969 24 12.707031 23.957031 12.757812 23.957031 Z M 12.757812 23.957031 "/>
    </g>
    <mask id="mask9">
      <g filter="url(#alpha)">
        <rect x="0" y="0" width="32" height="32" style="fill:rgb(0%,0%,0%);fill-opacity:0.2;stroke:none;"/>
      </g>
    </mask>
    <clipPath id="clip12">
      <rect width="32" height="32"/>
    </clipPath>
    <g id="surface33" clip-path="url(#clip12)">
      <path style=" stroke:none;fill-rule:nonzero;fill:rgb(0%,0%,0%);fill-opacity:1;" d="M 6.089844 12 L 25.910156 12 C 25.960938 12 26 12.039062 26 12.089844 L 26 12.5625 C 26 12.613281 25.960938 12.652344 25.910156 12.652344 L 6.089844 12.652344 C 6.039062 12.652344 6 12.613281 6 12.5625 L 6 12.089844 C 6 12.039062 6.039062 12 6.089844 12 Z M 6.089844 12 "/>
    </g>
  </defs>
  <g id="surface1">
    <use xlink:href="#surface6" mask="url(#mask0)"/>
    <path style=" stroke:none;fill-rule:nonzero;fill:rgb(0.392157%,41.176471%,63.137255%);fill-opacity:1;" d="M 23.871094 3.421875 C 23.964844 3.769531 23.660156 4.152344 23.191406 4.28125 L 4.316406 9.332031 C 3.847656 9.457031 3.390625 9.277344 3.296875 8.925781 C 3.203125 8.578125 3.507812 8.195312 3.976562 8.070312 L 22.851562 3.015625 C 23.320312 2.890625 23.777344 3.074219 23.871094 3.421875 Z M 23.871094 3.421875 "/>
    <g clip-path="url(#clip2)" clip-rule="nonzero">
      <g clip-path="url(#clip3)" clip-rule="nonzero">
        <use xlink:href="#surface9" mask="url(#mask1)"/>
      </g>
    </g>
    <use xlink:href="#surface12" mask="url(#mask2)"/>
    <path style=" stroke:none;fill-rule:nonzero;fill:rgb(1.176471%,60.784314%,89.803922%);fill-opacity:1;" d="M 4.777344 8 L 27.222656 8 C 28.386719 8 29.332031 8.945312 29.332031 10.113281 L 29.332031 27.222656 C 29.332031 28.386719 28.386719 29.332031 27.222656 29.332031 L 4.777344 29.332031 C 3.613281 29.332031 2.667969 28.386719 2.667969 27.222656 L 2.667969 10.113281 C 2.667969 8.945312 3.613281 8 4.777344 8 Z M 4.777344 8 "/>
    <use xlink:href="#surface15" mask="url(#mask3)"/>
    <path style=" stroke:none;fill-rule:nonzero;fill:rgb(0.392157%,27.45098%,40.784314%);fill-opacity:1;" d="M 9.332031 20.332031 C 9.332031 21.253906 8.585938 22 7.667969 22 C 6.746094 22 6 21.253906 6 20.332031 C 6 19.414062 6.746094 18.667969 7.667969 18.667969 C 8.585938 18.667969 9.332031 19.414062 9.332031 20.332031 Z M 9.332031 20.332031 "/>
    <path style=" stroke:none;fill-rule:nonzero;fill:rgb(80.392157%,93.333333%,99.607843%);fill-opacity:1;" d="M 6.457031 12 L 25.542969 12 C 25.792969 12 26 12.207031 26 12.457031 L 26 14.875 C 26 15.128906 25.792969 15.332031 25.542969 15.332031 L 6.457031 15.332031 C 6.207031 15.332031 6 15.128906 6 14.875 L 6 12.457031 C 6 12.207031 6.207031 12 6.457031 12 Z M 6.457031 12 "/>
    <use xlink:href="#surface18" mask="url(#mask4)"/>
    <path style=" stroke:none;fill-rule:nonzero;fill:rgb(0.392157%,27.45098%,40.784314%);fill-opacity:1;" d="M 9.332031 25 C 9.332031 25.921875 8.585938 26.667969 7.667969 26.667969 C 6.746094 26.667969 6 25.921875 6 25 C 6 24.078125 6.746094 23.332031 7.667969 23.332031 C 8.585938 23.332031 9.332031 24.078125 9.332031 25 Z M 9.332031 25 "/>
    <path style=" stroke:none;fill-rule:nonzero;fill:rgb(80.392157%,93.333333%,99.607843%);fill-opacity:1;" d="M 12.941406 18.667969 L 25.726562 18.667969 C 25.875 18.667969 26 18.789062 26 18.941406 L 26 20.390625 C 26 20.542969 25.875 20.667969 25.726562 20.667969 L 12.941406 20.667969 C 12.789062 20.667969 12.667969 20.542969 12.667969 20.390625 L 12.667969 18.941406 C 12.667969 18.789062 12.789062 18.667969 12.941406 18.667969 Z M 12.941406 18.667969 "/>
    <path style=" stroke:none;fill-rule:nonzero;fill:rgb(80.392157%,93.333333%,99.607843%);fill-opacity:1;" d="M 12.941406 21.332031 L 25.726562 21.332031 C 25.875 21.332031 26 21.457031 26 21.609375 L 26 23.058594 C 26 23.210938 25.875 23.332031 25.726562 23.332031 L 12.941406 23.332031 C 12.789062 23.332031 12.667969 23.210938 12.667969 23.058594 L 12.667969 21.609375 C 12.667969 21.457031 12.789062 21.332031 12.941406 21.332031 Z M 12.941406 21.332031 "/>
    <path style=" stroke:none;fill-rule:nonzero;fill:rgb(80.392157%,93.333333%,99.607843%);fill-opacity:1;" d="M 12.949219 23.9375 L 25.714844 23.9375 C 25.871094 23.9375 26 24.066406 26 24.222656 L 26 25.714844 C 26 25.871094 25.871094 26 25.714844 26 L 12.949219 26 C 12.792969 26 12.667969 25.871094 12.667969 25.714844 L 12.667969 24.222656 C 12.667969 24.066406 12.792969 23.9375 12.949219 23.9375 Z M 12.949219 23.9375 "/>
    <path style=" stroke:none;fill-rule:nonzero;fill:rgb(89.803922%,50.196078%,1.176471%);fill-opacity:1;" d="M 10.667969 12.667969 L 12 12.667969 L 12 15.332031 L 10.667969 15.332031 Z M 10.667969 12.667969 "/>
    <use xlink:href="#surface21" mask="url(#mask5)"/>
    <use xlink:href="#surface24" mask="url(#mask6)"/>
    <use xlink:href="#surface27" mask="url(#mask7)"/>
    <use xlink:href="#surface30" mask="url(#mask8)"/>
    <use xlink:href="#surface33" mask="url(#mask9)"/>
  </g>
</svg>
