<?xml version="1.0" encoding="UTF-8" standalone="no"?>
<!-- Created with Inkscape (http://www.inkscape.org/) -->

<svg
   xmlns:dc="http://purl.org/dc/elements/1.1/"
   xmlns:cc="http://creativecommons.org/ns#"
   xmlns:rdf="http://www.w3.org/1999/02/22-rdf-syntax-ns#"
   xmlns:svg="http://www.w3.org/2000/svg"
   xmlns="http://www.w3.org/2000/svg"
   xmlns:xlink="http://www.w3.org/1999/xlink"
   xmlns:sodipodi="http://sodipodi.sourceforge.net/DTD/sodipodi-0.dtd"
   xmlns:inkscape="http://www.inkscape.org/namespaces/inkscape"
   width="16"
   height="16"
   viewBox="0 0 16 16"
   id="svg2"
   version="1.1"
   inkscape:version="0.92.3 (2405546, 2018-03-11)"
   sodipodi:docname="eradio-empty-favorites.svg">
  <defs
     id="defs4">
    <symbol
       id="heart"
       class="Web-Application-Icons Medical-Icons">
      <title
         id="title75933">Heart</title>
      <path
         transform="matrix(0.05,0,0,-0.05,0,76.8)"
         d="M896 -128q-26 0 -44 18l-624 602q-10 8 -27.5 26t-55.5 65.5t-68 97.5t-53.5 121t-23.5 138q0 220 127 344t351 124q62 0 126.5 -21.5t120 -58t95.5 -68.5t76 -68q36 36 76 68t95.5 68.5t120 58t126.5 21.5q224 0 351 -124t127 -344q0 -221 -229 -450l-623 -600 q-18 -18 -44 -18z"
         id="path75935" />
    </symbol>
  </defs>
  <sodipodi:namedview
     id="base"
     pagecolor="#ffffff"
     bordercolor="#666666"
     borderopacity="1.0"
     inkscape:pageopacity="0.0"
     inkscape:pageshadow="2"
     inkscape:zoom="31.678384"
     inkscape:cx="9.2832265"
     inkscape:cy="6.825244"
     inkscape:document-units="px"
     inkscape:current-layer="layer1"
     showgrid="true"
     units="px"
     inkscape:window-width="1366"
     inkscape:window-height="705"
     inkscape:window-x="0"
     inkscape:window-y="30"
     inkscape:window-maximized="1">
    <inkscape:grid
       type="xygrid"
       id="grid154476" />
  </sodipodi:namedview>
  <metadata
     id="metadata7">
    <rdf:RDF>
      <cc:Work
         rdf:about="">
        <dc:format>image/svg+xml</dc:format>
        <dc:type
           rdf:resource="http://purl.org/dc/dcmitype/StillImage" />
        <dc:title />
      </cc:Work>
    </rdf:RDF>
  </metadata>
  <g
     inkscape:label="Layer 1"
     inkscape:groupmode="layer"
     id="layer1"
     transform="translate(0,-1036.3622)"
     style="display:inline">
    <use
       id="use154462"
       xlink:href="#heart"
       transform="matrix(0.15552029,0,0,0.15552029,1.023762,1037.0722)"
       x="0"
       y="0"
       width="100%"
       height="100%"
       style="opacity:1;fill:#2b6e9a;fill-opacity:1;stroke:#000000;stroke-opacity:1;stroke-width:1.64608747;stroke-miterlimit:4;stroke-dasharray:none" />
    <use
       id="use154462-3"
       xlink:href="#heart"
       transform="matrix(0.12092634,0,0,0.11072917,2.5825,1038.9628)"
       x="0"
       y="0"
       width="100%"
       height="100%"
       style="fill:#ffffff;fill-opacity:1;stroke:none;stroke-width:73.598526;stroke-miterlimit:4;stroke-dasharray:none;stroke-opacity:1" />
  </g>
</svg>
